<svg xmlns="http://www.w3.org/2000/svg" width="13.249" height="13.248" viewBox="0 0 13.249 13.248">
    <g>
        <g>
            <path fill="#7a879f" d="M8.083 6.64l4.953-4.954a.726.726 0 0 0 0-1.025L12.6.228a.726.726 0 0 0-1.025 0L6.624 5.181 1.671.228a.726.726 0 0 0-1.025 0L.212.662a.725.725 0 0 0 0 1.025L5.166 6.64.212 11.593a.727.727 0 0 0 0 1.025l.434.434a.726.726 0 0 0 1.025 0L6.624 8.1l4.953 4.953a.719.719 0 0 0 .512.212.719.719 0 0 0 .512-.212l.434-.434a.727.727 0 0 0 0-1.025z" transform="translate(0 -.016) translate(0 .016) translate(0 -.016)"/>
        </g>
    </g>
</svg>
