<svg xmlns="http://www.w3.org/2000/svg" width="26" height="26" viewBox="0 0 26 26">
    <g>
        <path fill="#7a879f" d="M0 16.161c0-2.651 3.668-3.315 7.962-3.315 4.317 0 7.962.686 7.962 3.339S12.256 19.5 7.962 19.5C3.645 19.5 0 18.814 0 16.161zm18.019.515c.37-3.372-2.563-4.971-3.323-5.338a.057.057 0 0 1-.036-.059.045.045 0 0 1 .04-.03 19.927 19.927 0 0 1 4.06.345 3.459 3.459 0 0 1 2.668 1.59 2.282 2.282 0 0 1 0 2.034c-.576 1.217-2.433 1.609-3.155 1.709h-.032a.225.225 0 0 1-.222-.252zM2.694 5.16A5.2 5.2 0 0 1 7.962 0a5.2 5.2 0 0 1 5.268 5.16 5.2 5.2 0 0 1-5.268 5.159A5.2 5.2 0 0 1 2.694 5.16zm12.168 4.4a4.408 4.408 0 0 1-.606-.057.191.191 0 0 1-.133-.3 6.968 6.968 0 0 0-.105-8.059A.119.119 0 0 1 14 1.01a.161.161 0 0 1 .1-.06 4.553 4.553 0 0 1 .886-.088 4.382 4.382 0 0 1 4.287 5.5 4.376 4.376 0 0 1-4.291 3.2z" transform="translate(2.167 3.25)"/>
    </g>
</svg>
