<svg xmlns="http://www.w3.org/2000/svg" id="Iconly_Light_Bag" width="24" height="24" viewBox="0 0 24 24">
    <defs>
        <style>
            .cls-1{fill:none;stroke:#7986a1;stroke-linecap:round;stroke-linejoin:round;stroke-miterlimit:10;stroke-width:1.5px}
        </style>
    </defs>
    <g id="Bag" transform="translate(2.5 1.5)">
        <path id="Path_33955" d="M13.213 14.682H4.865c-3.065 0-5.419-1.108-4.751-5.565l.778-6.041C1.3.851 2.723 0 3.968 0h10.178c1.263 0 2.6.915 3.076 3.076L18 9.117c.567 3.954-1.721 5.565-4.787 5.565z" class="cls-1" transform="translate(.801 5.318)"/>
        <path id="Path_33956" d="M8.659 4.32A4.32 4.32 0 0 0 4.339 0 4.32 4.32 0 0 0 0 4.32" class="cls-1" transform="translate(5.492 .778)"/>
        <path id="Line_192" d="M.481.458H.435" class="cls-1" transform="translate(12.316 9.144)"/>
        <path id="Line_193" d="M.481.458H.435" class="cls-1" transform="translate(6.485 9.144)"/>
    </g>
</svg>
