<svg xmlns="http://www.w3.org/2000/svg" width="26" height="26" viewBox="0 0 26 26">
    <g>
        <path fill="#7a879f" d="M5.063 21.666A5.089 5.089 0 0 1 0 16.564V4.886A4.867 4.867 0 0 1 4.837 0h5.728a.5.5 0 0 1 .493.5v3.487a3.619 3.619 0 0 0 3.583 3.618c.458 0 .86 0 1.216.007h1.301c.248 0 .527-.006.776-.006a.485.485 0 0 1 .483.488V16.8a4.846 4.846 0 0 1-4.817 4.866zm.011-6.889a.819.819 0 0 0 .8.812h5.834a.819.819 0 0 0 .8-.812.8.8 0 0 0-.8-.8h-5.83a.8.8 0 0 0-.804.8zm0-5.406a.8.8 0 0 0 .8.8H9.5a.8.8 0 0 0 .8-.8.819.819 0 0 0-.8-.812H5.878a.819.819 0 0 0-.804.812zm9.711-3.348a2.186 2.186 0 0 1-2.164-2.185V.982A.512.512 0 0 1 13.5.62l4.318 4.536a.516.516 0 0 1-.369.874H16.7c-.674.001-1.372-.002-1.915-.007z" transform="translate(3.792 2.167)"/>
    </g>
</svg>
