<svg xmlns="http://www.w3.org/2000/svg" id="Iconly_Light_Setting" width="24" height="24" viewBox="0 0 24 24">
    <defs>
        <style>
            .cls-1{fill:none;stroke:#7986a1;stroke-linecap:round;stroke-linejoin:round;stroke-miterlimit:10;stroke-width:1.5px}
        </style>
    </defs>
    <g id="Setting" transform="translate(2.5 1.5)">
        <path id="Path_33946" d="M17.528 5.346l-.622-1.08a1.913 1.913 0 0 0-2.609-.7 1.9 1.9 0 0 1-2.609-.677 1.831 1.831 0 0 1-.256-.915A1.913 1.913 0 0 0 9.519 0H8.265a1.9 1.9 0 0 0-1.9 1.913A1.913 1.913 0 0 1 4.448 3.8a1.831 1.831 0 0 1-.915-.256 1.913 1.913 0 0 0-2.609.7l-.668 1.1a1.913 1.913 0 0 0 .7 2.609 1.913 1.913 0 0 1 .957 1.657 1.913 1.913 0 0 1-.957 1.657 1.9 1.9 0 0 0-.7 2.6l.632 1.089A1.913 1.913 0 0 0 3.5 15.7a1.895 1.895 0 0 1 2.6.7 1.831 1.831 0 0 1 .256.915 1.913 1.913 0 0 0 1.913 1.913h1.25a1.913 1.913 0 0 0 1.913-1.9 1.9 1.9 0 0 1 1.913-1.913 1.95 1.95 0 0 1 .915.256 1.913 1.913 0 0 0 2.609-.7l.659-1.1a1.9 1.9 0 0 0-.7-2.609 1.9 1.9 0 0 1-.7-2.609 1.876 1.876 0 0 1 .7-.7 1.913 1.913 0 0 0 .7-2.6z" class="cls-1" transform="translate(.779 .778)"/>
        <circle id="Ellipse_737" cx="2.636" cy="2.636" r="2.636" class="cls-1" transform="translate(7.039 7.753)"/>
    </g>
</svg>
