<svg xmlns="http://www.w3.org/2000/svg" width="26" height="26" viewBox="0 0 26 26">
    <g>
        <path fill="#7a879f" d="M16.411 20a1.64 1.64 0 1 1 1.646 1.669A1.662 1.662 0 0 1 16.411 20zM4.233 20a1.64 1.64 0 1 1 1.645 1.669A1.662 1.662 0 0 1 4.233 20zm1.818-3.428a2.718 2.718 0 0 1-1.87-.746 2.833 2.833 0 0 1-.879-1.84l-1-12.051-1.63-.29A.83.83 0 0 1 .829 0a.885.885 0 0 1 .124.01l2.582.4a.832.832 0 0 1 .671.752l.206 2.477a.668.668 0 0 0 .66.62h14.619A1.829 1.829 0 0 1 21.218 5a2.438 2.438 0 0 1 .411 1.9L20.6 14.148a2.8 2.8 0 0 1-2.739 2.421zm6.267-7.4a.822.822 0 0 0 .812.829h3a.822.822 0 0 0 .812-.829.813.813 0 0 0-.812-.83h-3a.813.813 0 0 0-.811.832z" transform="translate(2.167 2.167)"/>
    </g>
</svg>
