<svg xmlns="http://www.w3.org/2000/svg" width="24" height="24" viewBox="0 0 24 24">
    <g>
        <path fill="none" stroke="#7986a1" stroke-linecap="round" stroke-linejoin="round" stroke-miterlimit="10" stroke-width="1.5px" d="M6.657 18.771V15.7a1.426 1.426 0 0 1 1.424-1.419h2.886A1.426 1.426 0 0 1 12.4 15.7v3.076A1.225 1.225 0 0 0 13.6 20h1.924A3.456 3.456 0 0 0 19 16.562V7.838a2.439 2.439 0 0 0-.962-1.9L11.458.685a3.18 3.18 0 0 0-3.944 0L.962 5.943A2.42 2.42 0 0 0 0 7.847v8.714A3.456 3.456 0 0 0 3.473 20H5.4a1.235 1.235 0 0 0 1.241-1.229" transform="translate(2.5 2)"/>
    </g>
</svg>
