<svg xmlns="http://www.w3.org/2000/svg" width="26" height="26" viewBox="0 0 26 26">
    <g>
        <path fill="#7a879f" d="M14.257 21.666H5.275c-2.037 0-3.439-.474-4.288-1.45C.1 19.2-.185 17.656.115 15.507L.958 8.8A4.422 4.422 0 0 1 2.25 6.183a2.964 2.964 0 0 1 2.011-.766h.084a.736.736 0 0 1 0-.245 5.417 5.417 0 0 1 10.823 0h-.028a.561.561 0 0 1-.048.245h.17a2.89 2.89 0 0 1 1.979.792A4.754 4.754 0 0 1 18.574 8.8l.834 6.711a5.56 5.56 0 0 1-.982 4.583 5.324 5.324 0 0 1-4.169 1.572zm-1.38-12.642a.986.986 0 1 0 .957.985.972.972 0 0 0-.957-.985zm-6.271 0a.986.986 0 1 0 .957.985.972.972 0 0 0-.957-.985zm3.108-7.613A3.772 3.772 0 0 0 5.94 5.172a.686.686 0 0 1 0 .245h7.6a.708.708 0 0 1-.047-.245 3.772 3.772 0 0 0-3.779-3.761z" transform="translate(3.249 2.167)"/>
    </g>
</svg>
