<svg xmlns="http://www.w3.org/2000/svg" width="24" height="24" viewBox="0 0 24 24">
    <g>
        <path fill="#7a879f" d="M14.515 18h-9.03a5.64 5.64 0 0 1-4.036-1.411A5.323 5.323 0 0 1 0 12.661V5.339a5.323 5.323 0 0 1 1.449-3.928A5.64 5.64 0 0 1 5.485 0h9.031a5.618 5.618 0 0 1 4.036 1.417A5.392 5.392 0 0 1 20 5.382h-4.231v.034a3.583 3.583 0 0 0-2.513 1.017 3.4 3.4 0 0 0-1.043 2.449 3.516 3.516 0 0 0 3.556 3.467H20v.311a5.323 5.323 0 0 1-1.449 3.928A5.64 5.64 0 0 1 14.515 18zM4.738 3.892a.757.757 0 0 0-.764.736.766.766 0 0 0 .764.754h5.645a.745.745 0 1 0 0-1.49zm14.515 6.967h-3.434a2.1 2.1 0 0 1-2.059-1.594 1.977 1.977 0 0 1 .433-1.652 2.089 2.089 0 0 1 1.576-.74h3.484A.739.739 0 0 1 20 7.6v2.531a.75.75 0 0 1-.747.727zM15.91 8.042a.757.757 0 0 0-.53.212.732.732 0 0 0-.225.524.766.766 0 0 0 .765.754h.329a.745.745 0 1 0 0-1.49h-.339z" transform="translate(2 3)"/>
    </g>
</svg>
