<svg xmlns="http://www.w3.org/2000/svg" width="26" height="26" viewBox="0 0 26 26">
    <g>
        <path fill="#7a879f" d="M17.18 19.5H4.488A4.472 4.472 0 0 1 0 15.054v-2.9a.81.81 0 0 1 .812-.805 1.608 1.608 0 0 0 1.615-1.6 1.528 1.528 0 0 0-1.615-1.5A.811.811 0 0 1 0 7.441V4.447A4.472 4.472 0 0 1 4.489 0h12.689a4.473 4.473 0 0 1 4.488 4.447v2.9a.807.807 0 0 1-.812.805 1.6 1.6 0 1 0 0 3.2.81.81 0 0 1 .812.805v2.9A4.472 4.472 0 0 1 17.18 19.5zm-6.346-7.291l1.576.82a.814.814 0 0 0 .378.1.8.8 0 0 0 .787-.93l-.3-1.742L14.55 9.22a.78.78 0 0 0 .2-.816.789.789 0 0 0-.645-.537l-1.765-.255-.79-1.584a.8.8 0 0 0-1.438 0l-.79 1.585-1.761.254a.8.8 0 0 0-.65.538.783.783 0 0 0 .2.816l1.277 1.232-.3 1.742a.788.788 0 0 0 .32.778.8.8 0 0 0 .841.059l1.579-.823z" transform="translate(2.167 3.25)"/>
    </g>
</svg>
