<?xml version="1.0" standalone="no"?>
<!DOCTYPE svg PUBLIC "-//W3C//DTD SVG 20010904//EN"
 "http://www.w3.org/TR/2001/REC-SVG-20010904/DTD/svg10.dtd">
<svg version="1.0" xmlns="http://www.w3.org/2000/svg"
 width="362.000000pt" height="428.000000pt" viewBox="0 0 362.000000 428.000000"
 preserveAspectRatio="xMidYMid meet">

<g transform="translate(0.000000,428.000000) scale(0.100000,-0.100000)"
fill="#000000" stroke="none">
<path d="M1612 4254 c-59 -29 -106 -79 -136 -143 -15 -35 -21 -73 -24 -158
l-4 -113 -594 0 c-570 0 -595 -1 -647 -20 -73 -27 -130 -79 -164 -148 l-28
-57 -3 -332 -3 -333 1801 0 1801 0 -3 333 c-3 313 -4 335 -24 378 -31 66 -78
114 -142 146 l-57 28 -606 3 -607 3 -4 112 c-3 85 -9 123 -24 158 -30 64 -77
114 -136 143 -49 24 -61 26 -198 26 -137 0 -149 -2 -198 -26z"/>
<path d="M174 2643 c3 -16 82 -557 176 -1203 95 -646 176 -1199 182 -1227 12
-67 60 -137 122 -180 l48 -33 1107 0 1106 0 51 34 c63 43 110 111 123 179 5
29 87 583 181 1232 95 649 174 1190 177 1203 l5 22 -1642 0 -1642 0 6 -27z"/>
</g>
</svg>
