<svg xmlns="http://www.w3.org/2000/svg" width="24" height="24" viewBox="0 0 24 24">
    <g>
        <path fill="#7a879f" d="M10.2 20H8.807a2.066 2.066 0 0 1-2.125-2.05A1.9 1.9 0 0 0 4.8 16.13a1.58 1.58 0 0 0-.9.23 2.163 2.163 0 0 1-1.084.3A2.122 2.122 0 0 1 1 15.62l-.7-1.2a2 2 0 0 1-.021-2.05 2.108 2.108 0 0 1 .817-.789 1.653 1.653 0 0 0 .644-.64 1.782 1.782 0 0 0 .19-1.365 1.837 1.837 0 0 0-.859-1.136 2.045 2.045 0 0 1-.757-2.83L1 4.43a2.123 2.123 0 0 1 2.882-.76 1.894 1.894 0 0 0 .9.224 1.959 1.959 0 0 0 1.664-.914 1.538 1.538 0 0 0 .236-.88 1.788 1.788 0 0 1 .286-1.06A2.2 2.2 0 0 1 8.776 0h1.441a2.154 2.154 0 0 1 1.82 1.04 1.781 1.781 0 0 1 .275 1.06 1.545 1.545 0 0 0 .235.88 1.964 1.964 0 0 0 1.672.914 1.926 1.926 0 0 0 .9-.224 2.111 2.111 0 0 1 2.872.76l.684 1.18a2.027 2.027 0 0 1-.756 2.831 1.829 1.829 0 0 0-.853 1.138 1.771 1.771 0 0 0 .2 1.362 1.571 1.571 0 0 0 .634.64 2.307 2.307 0 0 1 .828.789 2.031 2.031 0 0 1-.02 2.05l-.715 1.2a2.1 2.1 0 0 1-2.893.74 1.621 1.621 0 0 0-.9-.23 1.9 1.9 0 0 0-1.891 1.82A2.061 2.061 0 0 1 10.2 20zM9.512 7.18a2.87 2.87 0 0 0-2.9 2.83 2.763 2.763 0 0 0 .849 2 2.93 2.93 0 0 0 2.053.821 2.822 2.822 0 0 0 2.036-4.825 2.877 2.877 0 0 0-2.038-.826z" transform="translate(2.5 2)"/>
    </g>
</svg>
