<?xml version="1.0" encoding="iso-8859-1"?>
<!-- Generator: Adobe Illustrator 18.1.1, SVG Export Plug-In . SVG Version: 6.00 Build 0)  -->
<svg version="1.1" id="Capa_1" xmlns="http://www.w3.org/2000/svg" xmlns:xlink="http://www.w3.org/1999/xlink" x="0px" y="0px"
	 viewBox="0 0 611.998 611.998" style="enable-background:new 0 0 611.998 611.998;" xml:space="preserve">
<g>
	<g>
		<path d="M316.343,106.541c12.479,13.989,21.299,31.267,26.218,51.353c4.667,19.067,5.711,40.275,3.107,63.04
			c-0.965,8.419-2.394,17.959-4.476,28.046c16.122,15.61,37.242,25.521,64.7,25.52c76.182-0.005,103.593-76.283,110.766-138.938
			C525.5,58.374,489.003,0.279,405.893,0.279c-65.217,0-101.728,35.787-110.15,88.501
			C303.363,93.825,310.272,99.735,316.343,106.541z"/>
		<path d="M611.966,456.132c-0.829-24.312-3.679-48.739-7.925-72.674c-5.135-28.995-11.681-71.505-36.996-90.402
			c-14.639-10.924-33.598-14.509-50.355-21.095c-8.157-3.205-15.467-6.389-22.324-10.013
			c-23.148,25.385-53.333,38.664-88.482,38.666c-27.351,0-51.678-8.08-72.042-23.615c-4.688,14.499-10.963,29.102-19.352,42.443
			c7.367,4.438,15.339,7.98,25.022,11.784c4.287,1.686,8.992,3.224,13.975,4.851c13.47,4.403,28.737,9.392,42.444,19.623
			c32.582,24.322,40.603,69.898,46.46,103.178l0.631,3.59c3.029,17.066,5.253,33.832,6.684,50.12
			c26.004-2.665,51.877-7.218,77.246-12.574c20.505-4.328,40.876-9.61,60.602-16.727
			C603.315,477.606,612.613,474.965,611.966,456.132z"/>
		<path d="M430.171,464.752l-0.634-3.607c-5.477-31.126-12.98-73.754-41.411-94.977c-11.99-8.95-25.564-13.386-38.693-17.676
			c-5.169-1.689-10.051-3.284-14.697-5.111c-6.778-2.663-12.885-5.271-18.606-8.154c-24.037,32.072-57.348,48.959-96.974,48.962
			c-39.615,0-72.923-16.887-96.959-48.962c-5.721,2.883-11.828,5.491-18.607,8.154c-4.645,1.825-9.528,3.42-14.696,5.109
			c-13.129,4.29-26.706,8.726-38.694,17.676c-28.439,21.226-35.938,63.862-41.413,94.993l-0.634,3.593
			c-4.577,25.84-7.307,50.906-8.115,74.501c-0.949,27.684,16.233,33.854,31.391,39.3l1.633,0.588
			c18.229,6.578,38.618,12.21,62.335,17.223c48.428,10.222,87.728,15.101,123.673,15.356h0.093h0.093
			c35.95-0.255,75.248-5.135,123.67-15.356c23.72-5.011,44.109-10.643,62.332-17.221l1.63-0.586
			c15.162-5.445,32.349-11.616,31.4-39.303C437.476,515.6,434.743,490.533,430.171,464.752z"/>
		<path d="M220.175,363.91c76.182-0.005,103.593-76.28,110.766-138.94c8.839-77.188-27.661-135.28-110.766-135.28
			c-83.094,0-119.616,58.086-110.763,135.28C116.587,287.63,143.993,363.915,220.175,363.91z"/>
	</g>
</g>
<g>
</g>
<g>
</g>
<g>
</g>
<g>
</g>
<g>
</g>
<g>
</g>
<g>
</g>
<g>
</g>
<g>
</g>
<g>
</g>
<g>
</g>
<g>
</g>
<g>
</g>
<g>
</g>
<g>
</g>
</svg>
