<svg xmlns="http://www.w3.org/2000/svg" width="318.283" height="448.496" viewBox="0 0 318.283 448.496">
  <g id="element-1" transform="translate(0 0)">
    <path id="Path_907" data-name="Path 907" d="M0,447.222H178.955c48.367,0,72.552,0,91.026-7.392,16.25-6.5,29.462-16.877,37.742-29.638,9.413-14.507,9.413-33.5,9.413-71.482V0" transform="translate(0.708 0.834)" fill="none" stroke="#fff" stroke-width="0.88" opacity="0.4"/>
    <path id="Path_908" data-name="Path 908" d="M0,411.644H164.231c35.681,0,53.522,0,67.15-5.453,11.988-4.8,21.735-12.45,27.843-21.864,6.944-10.7,6.944-24.712,6.944-52.732V0" transform="translate(2.124 0.834)" fill="none" stroke="#fff" stroke-width="0.88" opacity="0.1"/>
    <path id="Path_909" data-name="Path 909" d="M0,376.9H155.453c23.391,0,35.087,0,44.02-3.575,7.859-3.144,14.248-8.162,18.252-14.333,4.552-7.015,4.552-16.2,4.552-34.569V0" transform="translate(0 0)" fill="none" stroke="#fff" stroke-width="0.88" opacity="0.8"/>
    <path id="Path_910" data-name="Path 910" d="M0,28.351H2.832V0H0Z" transform="translate(220.862 291.292)" fill="#fff" stroke="#fff" stroke-width="0.88"/>
  </g>
</svg>
