<svg xmlns="http://www.w3.org/2000/svg" width="156.568" height="38.879" viewBox="0 0 156.568 38.879">
  <g id="Group_8" data-name="Group 8" transform="translate(-38.262 -37.45)">
    <path id="Path_381" data-name="Path 381" d="M-46.1-.7a.677.677,0,0,1-.2.5.657.657,0,0,1-.481.2h-5.7a.657.657,0,0,1-.481-.2.677.677,0,0,1-.2-.5V-23.8a.677.677,0,0,1,.2-.5.657.657,0,0,1,.481-.2h9.993a21.5,21.5,0,0,1,4.883.507,11.085,11.085,0,0,1,3.692,1.531,6.968,6.968,0,0,1,2.336,2.581,7.754,7.754,0,0,1,.814,3.64,7.7,7.7,0,0,1-.814,3.631,6.988,6.988,0,0,1-2.336,2.573A11.214,11.214,0,0,1-37.607-8.5a21.149,21.149,0,0,1-4.883.516h-3.6Zm8.19-15.54a3.556,3.556,0,0,0-.35-1.654,2.729,2.729,0,0,0-1.024-1.085,4.76,4.76,0,0,0-1.654-.586,12.956,12.956,0,0,0-2.257-.175h-2.9v7h2.9a12.353,12.353,0,0,0,2.257-.184,4.883,4.883,0,0,0,1.654-.595A2.745,2.745,0,0,0-38.255-14.6,3.5,3.5,0,0,0-37.905-16.24ZM-23.958.42A11.07,11.07,0,0,1-26.924.044,6.944,6.944,0,0,1-29.26-1.067a5.141,5.141,0,0,1-1.523-1.8A5.294,5.294,0,0,1-31.325-5.3a5.88,5.88,0,0,1,.569-2.616A5.219,5.219,0,0,1-29.015-9.9a8.86,8.86,0,0,1,2.94-1.269,17.157,17.157,0,0,1,4.165-.446h4.2v-.56a2.57,2.57,0,0,0-.175-1.006,1.418,1.418,0,0,0-.639-.674,3.657,3.657,0,0,0-1.278-.376,15.634,15.634,0,0,0-2.091-.114,19.77,19.77,0,0,0-3.29.271,18.133,18.133,0,0,0-2.922.726.707.707,0,0,1-.6-.052.614.614,0,0,1-.315-.508l-.35-2.8a.6.6,0,0,1,.1-.437.67.67,0,0,1,.368-.28q.84-.263,1.811-.472t2.021-.35q1.05-.14,2.126-.219t2.109-.079a20.316,20.316,0,0,1,4.41.411,7.928,7.928,0,0,1,2.975,1.26,4.881,4.881,0,0,1,1.68,2.17,8.547,8.547,0,0,1,.525,3.159V-.683a.657.657,0,0,1-.2.481.657.657,0,0,1-.481.2h-5.11a.664.664,0,0,1-.49-.192.642.642,0,0,1-.192-.472v-.823a9.041,9.041,0,0,1-1.435.928,8.128,8.128,0,0,1-1.487.586,9.49,9.49,0,0,1-1.593.306A16.392,16.392,0,0,1-23.958.42Zm2.065-3.99a8.852,8.852,0,0,0,2.345-.306,4.228,4.228,0,0,0,1.838-.989V-7.63h-4.025a5.5,5.5,0,0,0-2.809.542A1.763,1.763,0,0,0-25.41-5.5a1.65,1.65,0,0,0,.236.91,1.7,1.7,0,0,0,.691.6,3.681,3.681,0,0,0,1.111.324A10.26,10.26,0,0,0-21.893-3.57Zm13-21.3a.657.657,0,0,1,.2-.481.657.657,0,0,1,.481-.2h5.355a.649.649,0,0,1,.49.2.672.672,0,0,1,.193.481V-.683A.672.672,0,0,1-2.363-.2a.649.649,0,0,1-.49.2H-8.208a.657.657,0,0,1-.481-.2.657.657,0,0,1-.2-.481Z" transform="translate(197 63)" fill="#292929"/>
    <path id="Path_380" data-name="Path 380" d="M-48.965-.7a.677.677,0,0,1-.2.5.657.657,0,0,1-.481.2h-5.705a.657.657,0,0,1-.481-.2.677.677,0,0,1-.2-.5V-23.8a.677.677,0,0,1,.2-.5.657.657,0,0,1,.481-.2h9.993a21.5,21.5,0,0,1,4.882.507,11.085,11.085,0,0,1,3.693,1.531,6.968,6.968,0,0,1,2.336,2.581,7.754,7.754,0,0,1,.814,3.64,7.7,7.7,0,0,1-.814,3.631,6.988,6.988,0,0,1-2.336,2.573A11.214,11.214,0,0,1-40.478-8.5a21.149,21.149,0,0,1-4.882.516h-3.6Zm8.19-15.54a3.556,3.556,0,0,0-.35-1.654,2.729,2.729,0,0,0-1.024-1.085,4.76,4.76,0,0,0-1.654-.586,12.956,12.956,0,0,0-2.257-.175h-2.9v7h2.9a12.353,12.353,0,0,0,2.257-.184,4.883,4.883,0,0,0,1.654-.595A2.745,2.745,0,0,0-41.125-14.6,3.5,3.5,0,0,0-40.775-16.24Zm8.19-1.208a.672.672,0,0,1,.193-.481.628.628,0,0,1,.472-.2h5.372a.657.657,0,0,1,.481.2.657.657,0,0,1,.2.481v8.873a8.2,8.2,0,0,0,.254,2.2,3.584,3.584,0,0,0,.761,1.461,2.926,2.926,0,0,0,1.269.814,5.623,5.623,0,0,0,1.776.254,6.76,6.76,0,0,0,2.1-.324,4.605,4.605,0,0,0,1.68-.936V-17.448a.672.672,0,0,1,.192-.481.649.649,0,0,1,.49-.2h5.355a.657.657,0,0,1,.481.2.657.657,0,0,1,.2.481V-.683a.657.657,0,0,1-.2.481.657.657,0,0,1-.481.2h-5.355a.649.649,0,0,1-.49-.2.672.672,0,0,1-.192-.481V-1.5A8.466,8.466,0,0,1-20.633-.1,10.138,10.138,0,0,1-23.94.42q-4.305,0-6.475-2.161t-2.17-6.519Zm23.7-7.42a.657.657,0,0,1,.2-.481.657.657,0,0,1,.481-.2h5.355a.649.649,0,0,1,.49.2.672.672,0,0,1,.193.481V-.683A.672.672,0,0,1-2.363-.2a.649.649,0,0,1-.49.2H-8.208a.657.657,0,0,1-.481-.2.657.657,0,0,1-.2-.481Z" transform="translate(144 63)" fill="#00b5bc"/>
    <path id="Path_382" data-name="Path 382" d="M-21.145,0l-3.5-4.706,3.25-4.394h-.741l-2.9,3.913-2.9-3.913h-.78l3.25,4.407L-28.958,0h.78l3.12-4.212L-21.925,0ZM-14.7-9.165a4.821,4.821,0,0,0-3.341,1.2l.39.468A4.248,4.248,0,0,1-14.7-8.554,3.938,3.938,0,0,1-10.667-4.8h-8.515v.221A4.489,4.489,0,0,0-14.592.065a4.567,4.567,0,0,0,4.6-4.628A4.531,4.531,0,0,0-14.7-9.165Zm.1,8.632a3.827,3.827,0,0,1-3.913-3.679h7.826A3.871,3.871,0,0,1-14.592-.533ZM-6.572-.6-.306-8.632V-9.1H-7.417v.6h6.2L-7.495-.468V0H-.163V-.6ZM3.516-10.2a.5.5,0,0,0,.507-.507.508.508,0,0,0-.507-.507.508.508,0,0,0-.507.507A.5.5,0,0,0,3.516-10.2ZM3.178,0h.663V-9.1H3.178ZM15.06-9.1v7.9L8.872-9.1H8.313V0h.663V-7.9l6.2,7.9h.546V-9.1Zm8.749-.065a4.821,4.821,0,0,0-3.341,1.2l.39.468a4.248,4.248,0,0,1,2.951-1.053A3.938,3.938,0,0,1,27.839-4.8H19.324v.221A4.489,4.489,0,0,0,23.913.065a4.567,4.567,0,0,0,4.6-4.628A4.531,4.531,0,0,0,23.809-9.165Zm.1,8.632A3.827,3.827,0,0,1,20-4.212h7.826A3.871,3.871,0,0,1,23.913-.533Z" transform="translate(116.623 75.94)" fill="#707070"/>
    <g id="Group_2" data-name="Group 2" transform="translate(38.262 38)">
      <path id="Path_18" d="M235,54h22.052c4.2,0,12.6,4.463,12.6,14.7s-8.322,14.7-12.6,14.7H243.926L235,92.329V74.477h19.952s5.776-.053,5.776-5.776-5.776-5.776-5.776-5.776H235Z" transform="translate(-234.081 -54)" fill="#00b5bc"/>
      <path id="Path_21" data-name="Path 21" d="M252.633,101.688H231.5V92.5h21.133a4.331,4.331,0,0,1,4.069,4.594A4.205,4.205,0,0,1,252.633,101.688Zm-20.346-.788h20.346c.026,0,3.282-.053,3.282-3.807a3.52,3.52,0,0,0-3.282-3.807H232.288Z" transform="translate(-231.5 -82.393)" fill="#00b5bc"/>
      <circle id="Ellipse_1" cx="1.444" cy="1.444" r="1.444" transform="translate(19.558 13.389)" fill="#00b5bc"/>
    </g>
  </g>
</svg>
